<?xml version="1.0" encoding="UTF-8"?><svg xmlns="http://www.w3.org/2000/svg" xmlns:xlink="http://www.w3.org/1999/xlink" viewBox="0 0 32 32" version="1.1"><path d="M15.875 4l-.094.031-11 2.438L4 6.656v18.688l.781.187 11 2.438.094.031H18v-3h10V7H18V4zM16 6.031V25.97L6 23.78V8.22zM18 9h8v14h-8v-2h2v-2h-2v-1h2v-2h-2v-1h2v-2h-2v-1h2v-2h-2zm3 1v2h4v-2zm-6.844 1l-2.281.281-1.25 2.688c-.133.386-.23.68-.281.875h-.031a5.966 5.966 0 0 0-.25-.844l-.626-2.313-2.124.25-.094.063L9 16l-2 4 2.156.25.875-2.469c.106-.312.192-.566.219-.718h.031c.059.324.098.566.156.687l1.344 2.938L14.22 21l-2.656-5.031zM21 13v2h4v-2zm0 3v2h4v-2zm0 3v2h4v-2z" id="surface1"/><metadata><rdf:RDF xmlns:rdf="http://www.w3.org/1999/02/22-rdf-syntax-ns#" xmlns:rdfs="http://www.w3.org/2000/01/rdf-schema#" xmlns:dc="http://purl.org/dc/elements/1.1/"><rdf:Description about="https://iconscout.com/legal#licenses" dc:title="microsoft,excel" dc:description="microsoft,excel" dc:publisher="Iconscout" dc:date="2017-12-30" dc:format="image/svg+xml" dc:language="en"><dc:creator><rdf:Bag><rdf:li>Icons8</rdf:li></rdf:Bag></dc:creator></rdf:Description></rdf:RDF></metadata></svg>